<svg width="251" height="242" viewBox="0 0 251 242" fill="none" xmlns="http://www.w3.org/2000/svg">
<rect width="251" height="242" fill="white"/>
<path d="M83.6035 95.6169L75.9483 100.147V91.087L83.6035 95.6169Z" fill="#0CA8E8"/>
<path d="M39.3417 167.057L43.788 174.761L34.7285 174.662L39.3417 167.057Z" fill="#0CA8E8"/>
<path d="M84.6874 147.698L77.0322 152.228V143.168L84.6874 147.698Z" fill="#0CA8E8"/>
<path d="M81.6874 50.6984L74.0322 55.2283V46.1684L81.6874 50.6984Z" fill="#0CA8E8"/>
<path d="M118.822 28V18.5455H122.552C123.266 18.5455 123.875 18.6732 124.38 18.9286C124.888 19.181 125.274 19.5395 125.539 20.0043C125.806 20.4659 125.94 21.0091 125.94 21.6339C125.94 22.2617 125.805 22.8018 125.534 23.2543C125.263 23.7036 124.871 24.0483 124.357 24.2884C123.846 24.5284 123.227 24.6484 122.501 24.6484H120.004V23.0419H122.178C122.56 23.0419 122.877 22.9896 123.129 22.8849C123.381 22.7803 123.569 22.6233 123.692 22.4141C123.818 22.2048 123.881 21.9447 123.881 21.6339C123.881 21.32 123.818 21.0553 123.692 20.8398C123.569 20.6244 123.38 20.4613 123.124 20.3505C122.872 20.2366 122.553 20.1797 122.169 20.1797H120.821V28H118.822ZM123.928 23.6974L126.277 28H124.071L121.772 23.6974H123.928ZM128.396 29.625V25.244H128.364L127.002 26.098V24.8885L128.475 23.956H129.744V29.625H128.396Z" fill="black"/>
<path d="M51.6055 31.5455L50.3498 41H48.3509L49.6065 31.5455H51.6055ZM52.8254 42.625L53.407 38.244H53.3701L51.8975 39.098L52.059 37.8885L53.6563 36.956H54.9259L54.1734 42.625H52.8254Z" fill="black"/>
<path d="M51.6055 75.5455L50.3498 85H48.3509L49.6065 75.5455H51.6055ZM51.5189 86.625L51.6436 85.6048L54.1503 83.8089C54.3411 83.6674 54.5088 83.5397 54.6535 83.4258C54.7981 83.3088 54.9151 83.1934 55.0044 83.0795C55.0936 82.9626 55.1475 82.8333 55.1659 82.6918C55.1936 82.4702 55.1275 82.2994 54.9674 82.1793C54.8074 82.0593 54.595 81.9993 54.3303 81.9993C54.0657 81.9993 53.8348 82.0655 53.6379 82.1978C53.444 82.3271 53.3286 82.521 53.2916 82.7795H51.9298C52.0006 82.1978 52.2699 81.7362 52.7377 81.3945C53.2055 81.0529 53.7733 80.8821 54.4411 80.8821C54.9089 80.8821 55.2998 80.9652 55.6137 81.1314C55.9276 81.2945 56.1569 81.5146 56.3016 81.7915C56.4493 82.0655 56.5032 82.3686 56.4632 82.701C56.4324 82.9534 56.3539 83.1919 56.2277 83.4165C56.1046 83.6381 55.9138 83.8628 55.6553 84.0906C55.3998 84.3152 55.0582 84.5553 54.6304 84.8107L53.7071 85.4201L53.6979 85.4709H56.1769L56.0292 86.625H51.5189Z" fill="black"/>
<path d="M51.6055 128.545L50.3498 138H48.3509L49.6065 128.545H51.6055ZM53.8641 139.699C53.384 139.699 52.9685 139.627 52.6176 139.482C52.2668 139.337 52.0021 139.136 51.8236 138.877C51.6451 138.622 51.5743 138.323 51.6112 137.982H53.0377C53.0223 138.154 53.0962 138.288 53.2593 138.383C53.4255 138.479 53.6394 138.526 53.901 138.526C54.2026 138.526 54.4596 138.463 54.672 138.337C54.8874 138.214 55.009 138.054 55.0367 137.857C55.0674 137.663 54.9951 137.515 54.8197 137.414C54.6473 137.312 54.3919 137.261 54.0534 137.261H53.384L53.5086 136.213H54.1365C54.4319 136.213 54.6781 136.149 54.8751 136.02C55.0721 135.887 55.1859 135.729 55.2167 135.544C55.2413 135.381 55.1967 135.25 55.0828 135.152C54.969 135.05 54.7797 134.999 54.515 134.999C54.2688 134.999 54.0318 135.05 53.8041 135.152C53.5794 135.253 53.4517 135.393 53.4209 135.572H52.0637C52.1129 135.236 52.2545 134.942 52.4884 134.69C52.7253 134.435 53.0223 134.236 53.3794 134.094C53.7394 133.953 54.1303 133.882 54.5519 133.882C55.0074 133.882 55.3937 133.961 55.7107 134.118C56.0277 134.271 56.2616 134.478 56.4124 134.736C56.5632 134.992 56.6186 135.272 56.5786 135.576C56.5386 135.9 56.397 136.152 56.1539 136.333C55.9138 136.512 55.6106 136.624 55.2444 136.67V136.717C55.666 136.76 55.9907 136.903 56.2185 137.146C56.4462 137.389 56.537 137.692 56.4909 138.055C56.4508 138.382 56.3124 138.668 56.0754 138.914C55.8415 139.16 55.5337 139.353 55.1521 139.491C54.7704 139.63 54.3411 139.699 53.8641 139.699Z" fill="black"/>
<path d="M24.7024 170.545L23.2898 180H21.2908L22.7035 170.545H24.7024Z" fill="black"/>
<path d="M123.53 219.545L125.815 226.729H125.903L128.192 219.545H130.408L127.149 229H124.573L121.309 219.545H123.53Z" fill="black"/>
<path d="M118.822 82V72.5455H122.552C123.266 72.5455 123.875 72.6732 124.38 72.9286C124.888 73.181 125.274 73.5395 125.539 74.0043C125.806 74.4659 125.94 75.0091 125.94 75.6339C125.94 76.2617 125.805 76.8018 125.534 77.2543C125.263 77.7036 124.871 78.0483 124.357 78.2884C123.846 78.5284 123.227 78.6484 122.501 78.6484H120.004V77.0419H122.178C122.56 77.0419 122.877 76.9896 123.129 76.8849C123.381 76.7803 123.569 76.6233 123.692 76.4141C123.818 76.2048 123.881 75.9447 123.881 75.6339C123.881 75.32 123.818 75.0553 123.692 74.8398C123.569 74.6244 123.38 74.4613 123.124 74.3505C122.872 74.2366 122.553 74.1797 122.169 74.1797H120.821V82H118.822ZM123.928 77.6974L126.277 82H124.071L121.772 77.6974H123.928ZM127.099 83.625V82.6048L129.347 80.8089C129.52 80.6674 129.669 80.5397 129.795 80.4258C129.921 80.3119 130.02 80.1965 130.091 80.0795C130.161 79.9626 130.197 79.8333 130.197 79.6918C130.197 79.4702 130.106 79.2994 129.924 79.1793C129.743 79.0593 129.523 78.9993 129.264 78.9993C128.987 78.9993 128.764 79.067 128.595 79.2024C128.429 79.3348 128.346 79.5271 128.346 79.7795H126.984C126.984 79.1886 127.199 78.7254 127.63 78.3899C128.061 78.0514 128.612 77.8821 129.283 77.8821C129.741 77.8821 130.14 77.9621 130.478 78.1222C130.817 78.2791 131.078 78.493 131.263 78.7638C131.451 79.0347 131.545 79.3378 131.545 79.6733C131.545 79.9441 131.488 80.1965 131.374 80.4304C131.263 80.6612 131.091 80.889 130.857 81.1136C130.626 81.3352 130.328 81.5676 129.961 81.8107L129.14 82.4201V82.4709H131.609V83.625H127.099Z" fill="black"/>
<path d="M119.822 125V115.545H123.552C124.266 115.545 124.875 115.673 125.38 115.929C125.888 116.181 126.274 116.54 126.539 117.004C126.806 117.466 126.94 118.009 126.94 118.634C126.94 119.262 126.805 119.802 126.534 120.254C126.263 120.704 125.871 121.048 125.357 121.288C124.846 121.528 124.227 121.648 123.501 121.648H121.004V120.042H123.178C123.56 120.042 123.877 119.99 124.129 119.885C124.381 119.78 124.569 119.623 124.692 119.414C124.818 119.205 124.881 118.945 124.881 118.634C124.881 118.32 124.818 118.055 124.692 117.84C124.569 117.624 124.38 117.461 124.124 117.35C123.872 117.237 123.553 117.18 123.169 117.18H121.821V125H119.822ZM124.928 120.697L127.277 125H125.071L122.772 120.697H124.928ZM130.384 126.699C129.92 126.699 129.506 126.627 129.142 126.482C128.782 126.337 128.496 126.136 128.284 125.877C128.071 125.622 127.961 125.323 127.951 124.982H129.401C129.416 125.154 129.516 125.288 129.701 125.383C129.889 125.479 130.116 125.526 130.384 125.526C130.661 125.526 130.897 125.471 131.091 125.36C131.284 125.252 131.381 125.1 131.381 124.903C131.381 124.718 131.283 124.566 131.086 124.446C130.892 124.323 130.623 124.261 130.278 124.261H129.627V123.213H130.278C130.564 123.213 130.795 123.156 130.971 123.043C131.146 122.926 131.234 122.776 131.234 122.595C131.234 122.416 131.157 122.273 131.003 122.165C130.852 122.055 130.652 121.999 130.403 121.999C130.141 121.999 129.918 122.052 129.733 122.156C129.549 122.261 129.452 122.399 129.442 122.572H128.081C128.087 122.236 128.193 121.942 128.399 121.69C128.608 121.435 128.888 121.236 129.239 121.094C129.59 120.953 129.983 120.882 130.417 120.882C130.857 120.882 131.241 120.954 131.571 121.099C131.9 121.244 132.155 121.439 132.337 121.685C132.522 121.932 132.614 122.205 132.614 122.507C132.614 122.839 132.499 123.106 132.268 123.306C132.04 123.506 131.765 123.627 131.441 123.67V123.717C131.888 123.76 132.235 123.895 132.485 124.123C132.734 124.351 132.859 124.643 132.859 125C132.859 125.332 132.751 125.626 132.536 125.882C132.323 126.137 132.031 126.337 131.658 126.482C131.286 126.627 130.861 126.699 130.384 126.699Z" fill="black"/>
<path d="M144 56L147.132 49.7363H156V50.7363H148.868L144 60.4727L136 44.4727L128 60.4727L120 44.4727L112 60.4727L104 44.4727L100.868 50.7363H92V49.7363H99.1318L104 40L112 56L120 40L128 56L136 40L144 56Z" fill="#0CA8E8"/>
<path d="M103 148L40 148" stroke="#0CA8E8"/>
<path d="M97 95L39 95" stroke="#0CA8E8"/>
<path d="M216 148L151 148" stroke="#0CA8E8"/>
<path d="M146.368 153.5L149.5 147.236H151.736L146.368 157.972L138.368 141.972L130.368 157.972L122.368 141.972L114.368 157.972L106.368 141.972L103.236 148.236H101L106.368 137.5L114.368 153.5L122.368 137.5L130.368 153.5L138.368 137.5L146.368 153.5Z" fill="#0CA8E8"/>
<path d="M144 101L147.132 94.7363H156V95.7363H148.868L144 105.473L136 89.4727L128 105.473L120 89.4727L112 105.473L104 89.4727L100.868 95.7363H92V94.7363H99.1318L104 85L112 101L120 85L128 101L136 85L144 101Z" fill="#0CA8E8"/>
<line x1="92" y1="50.5" x2="39" y2="50.5" stroke="black"/>
<line x1="92" y1="50.5" x2="39" y2="50.5" stroke="#0CA8E8"/>
<line x1="156" y1="50.5" x2="216" y2="50.5" stroke="#0CA8E8"/>
<line x1="154.992" y1="95.5001" x2="215.992" y2="94.5001" stroke="#0CA8E8"/>
<line x1="216.5" y1="50" x2="216.5" y2="204" stroke="#0CA8E8"/>
<line x1="216.5" y1="50" x2="216.5" y2="204" stroke="#0CA8E8"/>
<line x1="39.5" y1="50" x2="39.5" y2="204" stroke="#0CA8E8"/>
<line x1="39.5" y1="50" x2="39.5" y2="204" stroke="#0CA8E8"/>
<line x1="39" y1="203.5" x2="119" y2="203.5" stroke="#0CA8E8"/>
<line x1="132" y1="203.5" x2="157" y2="203.5" stroke="#0CA8E8"/>
<line x1="165" y1="203.5" x2="217" y2="203.5" stroke="#0CA8E8"/>
<line x1="119.5" y1="196" x2="119.5" y2="212" stroke="black"/>
<line x1="123.5" y1="199" x2="123.5" y2="209" stroke="black"/>
<line x1="127.5" y1="196" x2="127.5" y2="212" stroke="black"/>
<line x1="131.5" y1="199" x2="131.5" y2="209" stroke="black"/>
<path d="M159 198.063C154.5 203.42 159 208.063 159 208.063" stroke="black"/>
<path d="M163.396 208.126C167.461 202.432 162.611 198.157 162.611 198.157" stroke="black"/>
<circle cx="161" cy="203.063" r="1.5" fill="black" stroke="black"/>
</svg>
